<?xml version="1.0" encoding="UTF-8" standalone="no"?>
<!DOCTYPE svg PUBLIC "-//W3C//DTD SVG 1.1//EN"
 "http://www.w3.org/Graphics/SVG/1.1/DTD/svg11.dtd">
<!-- Generated by graphviz version 2.40.1 (20161225.0304)
 -->
<!-- Title: G Pages: 1 -->
<svg width="198pt" height="332pt"
 viewBox="0.00 0.00 197.84 332.00" xmlns="http://www.w3.org/2000/svg" xmlns:xlink="http://www.w3.org/1999/xlink">
<g id="graph0" class="graph" transform="scale(1 1) rotate(0) translate(4 328)">
<title>G</title>
<polygon fill="#ffffff" stroke="transparent" points="-4,4 -4,-328 193.8358,-328 193.8358,4 -4,4"/>
<!-- 0 -->
<g id="node1" class="node">
<title>0</title>
<ellipse fill="none" stroke="#000000" cx="44.8358" cy="-306" rx="27" ry="18"/>
<text text-anchor="middle" x="44.8358" y="-301.8" font-family="Times,serif" font-size="14.00" fill="#000000">0</text>
</g>
<!-- 500126 -->
<g id="node2" class="node">
<title>500126</title>
<ellipse fill="none" stroke="#000000" cx="44.8358" cy="-234" rx="40.0147" ry="18"/>
<text text-anchor="middle" x="44.8358" y="-229.8" font-family="Times,serif" font-size="14.00" fill="#000000">500126</text>
</g>
<!-- 0&#45;&gt;500126 -->
<g id="edge1" class="edge">
<title>0&#45;&gt;500126</title>
<path fill="none" stroke="#000000" d="M44.8358,-287.8314C44.8358,-280.131 44.8358,-270.9743 44.8358,-262.4166"/>
<polygon fill="#000000" stroke="#000000" points="48.3359,-262.4132 44.8358,-252.4133 41.3359,-262.4133 48.3359,-262.4132"/>
</g>
<!-- 1000246 -->
<g id="node3" class="node">
<title>1000246</title>
<ellipse fill="none" stroke="#000000" cx="44.8358" cy="-162" rx="44.6722" ry="18"/>
<text text-anchor="middle" x="44.8358" y="-157.8" font-family="Times,serif" font-size="14.00" fill="#000000">1000246</text>
</g>
<!-- 500126&#45;&gt;1000246 -->
<g id="edge2" class="edge">
<title>500126&#45;&gt;1000246</title>
<path fill="none" stroke="#000000" d="M44.8358,-215.8314C44.8358,-208.131 44.8358,-198.9743 44.8358,-190.4166"/>
<polygon fill="#000000" stroke="#000000" points="48.3359,-190.4132 44.8358,-180.4133 41.3359,-190.4133 48.3359,-190.4132"/>
</g>
<!-- 1000253 -->
<g id="node4" class="node">
<title>1000253</title>
<ellipse fill="none" stroke="#000000" cx="44.8358" cy="-90" rx="44.6722" ry="18"/>
<text text-anchor="middle" x="44.8358" y="-85.8" font-family="Times,serif" font-size="14.00" fill="#000000">1000253</text>
</g>
<!-- 1000246&#45;&gt;1000253 -->
<g id="edge3" class="edge">
<title>1000246&#45;&gt;1000253</title>
<path fill="none" stroke="#000000" d="M44.8358,-143.8314C44.8358,-136.131 44.8358,-126.9743 44.8358,-118.4166"/>
<polygon fill="#000000" stroke="#000000" points="48.3359,-118.4132 44.8358,-108.4133 41.3359,-118.4133 48.3359,-118.4132"/>
</g>
<!-- 1500380 -->
<g id="node5" class="node">
<title>1500380</title>
<ellipse fill="none" stroke="#000000" cx="44.8358" cy="-18" rx="44.6722" ry="18"/>
<text text-anchor="middle" x="44.8358" y="-13.8" font-family="Times,serif" font-size="14.00" fill="#000000">1500380</text>
</g>
<!-- 1000253&#45;&gt;1500380 -->
<g id="edge4" class="edge">
<title>1000253&#45;&gt;1500380</title>
<path fill="none" stroke="#000000" d="M44.8358,-71.8314C44.8358,-64.131 44.8358,-54.9743 44.8358,-46.4166"/>
<polygon fill="#000000" stroke="#000000" points="48.3359,-46.4132 44.8358,-36.4133 41.3359,-46.4133 48.3359,-46.4132"/>
</g>
<!-- A -->
<g id="node6" class="node">
<title>A</title>
<polygon fill="none" stroke="#000000" points="166.8358,-324 130.8358,-324 130.8358,-288 166.8358,-288 166.8358,-324"/>
<text text-anchor="middle" x="148.8358" y="-301.8" font-family="Times,serif" font-size="14.00" fill="#000000">A</text>
</g>
<!-- b -->
<g id="node9" class="node">
<title>b</title>
<ellipse fill="#3542b2" stroke="#3542b2" cx="125.8358" cy="-234" rx="18" ry="18"/>
<text text-anchor="middle" x="125.8358" y="-229.8" font-family="Times,serif" font-size="14.00" fill="#000000">b</text>
</g>
<!-- A&#45;&gt;b -->
<g id="edge5" class="edge">
<title>A&#45;&gt;b</title>
<path fill="none" stroke="#000000" d="M143.0319,-287.8314C140.4407,-279.7196 137.3332,-269.9918 134.477,-261.0505"/>
<polygon fill="#000000" stroke="#000000" points="137.7769,-259.8784 131.3998,-251.4177 131.1088,-262.0086 137.7769,-259.8784"/>
</g>
<!-- c -->
<g id="node10" class="node">
<title>c</title>
<ellipse fill="#3542b2" stroke="#3542b2" cx="171.8358" cy="-162" rx="18" ry="18"/>
<text text-anchor="middle" x="171.8358" y="-157.8" font-family="Times,serif" font-size="14.00" fill="#000000">c</text>
</g>
<!-- A&#45;&gt;c -->
<g id="edge6" class="edge">
<title>A&#45;&gt;c</title>
<path fill="none" stroke="#000000" d="M151.7488,-287.7623C155.689,-263.0928 162.754,-218.8598 167.3679,-189.9731"/>
<polygon fill="#000000" stroke="#000000" points="170.8254,-190.5165 168.9465,-180.0896 163.913,-189.4124 170.8254,-190.5165"/>
</g>
<!-- B -->
<g id="node7" class="node">
<title>B</title>
<polygon fill="none" stroke="#000000" points="143.8358,-108 107.8358,-108 107.8358,-72 143.8358,-72 143.8358,-108"/>
<text text-anchor="middle" x="125.8358" y="-85.8" font-family="Times,serif" font-size="14.00" fill="#000000">B</text>
</g>
<!-- C -->
<g id="node8" class="node">
<title>C</title>
<polygon fill="none" stroke="#000000" points="189.8358,-36 153.8358,-36 153.8358,0 189.8358,0 189.8358,-36"/>
<text text-anchor="middle" x="171.8358" y="-13.8" font-family="Times,serif" font-size="14.00" fill="#000000">C</text>
</g>
<!-- b&#45;&gt;B -->
<g id="edge7" class="edge">
<title>b&#45;&gt;B</title>
<path fill="none" stroke="#000000" d="M125.8358,-215.7623C125.8358,-191.201 125.8358,-147.2474 125.8358,-118.3541"/>
<polygon fill="#000000" stroke="#000000" points="129.3359,-118.0896 125.8358,-108.0896 122.3359,-118.0897 129.3359,-118.0896"/>
</g>
<!-- c&#45;&gt;C -->
<g id="edge8" class="edge">
<title>c&#45;&gt;C</title>
<path fill="none" stroke="#000000" d="M171.8358,-143.7623C171.8358,-119.201 171.8358,-75.2474 171.8358,-46.3541"/>
<polygon fill="#000000" stroke="#000000" points="175.3359,-46.0896 171.8358,-36.0896 168.3359,-46.0897 175.3359,-46.0896"/>
</g>
</g>
</svg>
