<?xml version="1.0" encoding="UTF-8" standalone="no"?>
<!DOCTYPE svg PUBLIC "-//W3C//DTD SVG 1.1//EN"
 "http://www.w3.org/Graphics/SVG/1.1/DTD/svg11.dtd">
<!-- Generated by graphviz version 2.40.1 (20161225.0304)
 -->
<!-- Title: G Pages: 1 -->
<svg width="193pt" height="332pt"
 viewBox="0.00 0.00 192.84 332.00" xmlns="http://www.w3.org/2000/svg" xmlns:xlink="http://www.w3.org/1999/xlink">
<g id="graph0" class="graph" transform="scale(1 1) rotate(0) translate(4 328)">
<title>G</title>
<polygon fill="#ffffff" stroke="transparent" points="-4,4 -4,-328 188.8358,-328 188.8358,4 -4,4"/>
<!-- 0 -->
<g id="node1" class="node">
<title>0</title>
<ellipse fill="none" stroke="#000000" cx="44.8358" cy="-306" rx="27" ry="18"/>
<text text-anchor="middle" x="44.8358" y="-301.8" font-family="Times,serif" font-size="14.00" fill="#000000">0</text>
</g>
<!-- 500074 -->
<g id="node2" class="node">
<title>500074</title>
<ellipse fill="none" stroke="#000000" cx="44.8358" cy="-234" rx="40.0147" ry="18"/>
<text text-anchor="middle" x="44.8358" y="-229.8" font-family="Times,serif" font-size="14.00" fill="#000000">500074</text>
</g>
<!-- 0&#45;&gt;500074 -->
<g id="edge1" class="edge">
<title>0&#45;&gt;500074</title>
<path fill="none" stroke="#000000" d="M44.8358,-287.8314C44.8358,-280.131 44.8358,-270.9743 44.8358,-262.4166"/>
<polygon fill="#000000" stroke="#000000" points="48.3359,-262.4132 44.8358,-252.4133 41.3359,-262.4133 48.3359,-262.4132"/>
</g>
<!-- 500222 -->
<g id="node3" class="node">
<title>500222</title>
<ellipse fill="none" stroke="#000000" cx="44.8358" cy="-162" rx="40.0147" ry="18"/>
<text text-anchor="middle" x="44.8358" y="-157.8" font-family="Times,serif" font-size="14.00" fill="#000000">500222</text>
</g>
<!-- 500074&#45;&gt;500222 -->
<g id="edge2" class="edge">
<title>500074&#45;&gt;500222</title>
<path fill="none" stroke="#000000" d="M44.8358,-215.8314C44.8358,-208.131 44.8358,-198.9743 44.8358,-190.4166"/>
<polygon fill="#000000" stroke="#000000" points="48.3359,-190.4132 44.8358,-180.4133 41.3359,-190.4133 48.3359,-190.4132"/>
</g>
<!-- 1000279 -->
<g id="node4" class="node">
<title>1000279</title>
<ellipse fill="none" stroke="#000000" cx="44.8358" cy="-90" rx="44.6722" ry="18"/>
<text text-anchor="middle" x="44.8358" y="-85.8" font-family="Times,serif" font-size="14.00" fill="#000000">1000279</text>
</g>
<!-- 500222&#45;&gt;1000279 -->
<g id="edge3" class="edge">
<title>500222&#45;&gt;1000279</title>
<path fill="none" stroke="#000000" d="M44.8358,-143.8314C44.8358,-136.131 44.8358,-126.9743 44.8358,-118.4166"/>
<polygon fill="#000000" stroke="#000000" points="48.3359,-118.4132 44.8358,-108.4133 41.3359,-118.4133 48.3359,-118.4132"/>
</g>
<!-- 1000342 -->
<g id="node5" class="node">
<title>1000342</title>
<ellipse fill="none" stroke="#000000" cx="44.8358" cy="-18" rx="44.6722" ry="18"/>
<text text-anchor="middle" x="44.8358" y="-13.8" font-family="Times,serif" font-size="14.00" fill="#000000">1000342</text>
</g>
<!-- 1000279&#45;&gt;1000342 -->
<g id="edge4" class="edge">
<title>1000279&#45;&gt;1000342</title>
<path fill="none" stroke="#000000" d="M44.8358,-71.8314C44.8358,-64.131 44.8358,-54.9743 44.8358,-46.4166"/>
<polygon fill="#000000" stroke="#000000" points="48.3359,-46.4132 44.8358,-36.4133 41.3359,-46.4133 48.3359,-46.4132"/>
</g>
<!-- A -->
<g id="node6" class="node">
<title>A</title>
<polygon fill="none" stroke="#000000" points="161.8358,-324 125.8358,-324 125.8358,-288 161.8358,-288 161.8358,-324"/>
<text text-anchor="middle" x="143.8358" y="-301.8" font-family="Times,serif" font-size="14.00" fill="#000000">A</text>
</g>
<!-- b -->
<g id="node9" class="node">
<title>b</title>
<ellipse fill="#3542b2" stroke="#3542b2" cx="120.8358" cy="-234" rx="18" ry="18"/>
<text text-anchor="middle" x="120.8358" y="-229.8" font-family="Times,serif" font-size="14.00" fill="#000000">b</text>
</g>
<!-- A&#45;&gt;b -->
<g id="edge5" class="edge">
<title>A&#45;&gt;b</title>
<path fill="none" stroke="#000000" d="M138.0319,-287.8314C135.4407,-279.7196 132.3332,-269.9918 129.477,-261.0505"/>
<polygon fill="#000000" stroke="#000000" points="132.7769,-259.8784 126.3998,-251.4177 126.1088,-262.0086 132.7769,-259.8784"/>
</g>
<!-- c -->
<g id="node10" class="node">
<title>c</title>
<ellipse fill="#3542b2" stroke="#3542b2" cx="166.8358" cy="-90" rx="18" ry="18"/>
<text text-anchor="middle" x="166.8358" y="-85.8" font-family="Times,serif" font-size="14.00" fill="#000000">c</text>
</g>
<!-- A&#45;&gt;c -->
<g id="edge6" class="edge">
<title>A&#45;&gt;c</title>
<path fill="none" stroke="#000000" d="M145.7572,-287.9555C149.7653,-250.3144 159.0428,-163.1867 163.8411,-118.1246"/>
<polygon fill="#000000" stroke="#000000" points="167.3251,-118.4595 164.9037,-108.1451 160.3645,-117.7182 167.3251,-118.4595"/>
</g>
<!-- B -->
<g id="node7" class="node">
<title>B</title>
<polygon fill="none" stroke="#000000" points="138.8358,-180 102.8358,-180 102.8358,-144 138.8358,-144 138.8358,-180"/>
<text text-anchor="middle" x="120.8358" y="-157.8" font-family="Times,serif" font-size="14.00" fill="#000000">B</text>
</g>
<!-- C -->
<g id="node8" class="node">
<title>C</title>
<polygon fill="none" stroke="#000000" points="184.8358,-36 148.8358,-36 148.8358,0 184.8358,0 184.8358,-36"/>
<text text-anchor="middle" x="166.8358" y="-13.8" font-family="Times,serif" font-size="14.00" fill="#000000">C</text>
</g>
<!-- b&#45;&gt;B -->
<g id="edge7" class="edge">
<title>b&#45;&gt;B</title>
<path fill="none" stroke="#000000" d="M120.8358,-215.8314C120.8358,-208.131 120.8358,-198.9743 120.8358,-190.4166"/>
<polygon fill="#000000" stroke="#000000" points="124.3359,-190.4132 120.8358,-180.4133 117.3359,-190.4133 124.3359,-190.4132"/>
</g>
<!-- c&#45;&gt;C -->
<g id="edge8" class="edge">
<title>c&#45;&gt;C</title>
<path fill="none" stroke="#000000" d="M166.8358,-71.8314C166.8358,-64.131 166.8358,-54.9743 166.8358,-46.4166"/>
<polygon fill="#000000" stroke="#000000" points="170.3359,-46.4132 166.8358,-36.4133 163.3359,-46.4133 170.3359,-46.4132"/>
</g>
</g>
</svg>
