<?xml version="1.0" encoding="UTF-8" standalone="no"?>
<!DOCTYPE svg PUBLIC "-//W3C//DTD SVG 1.1//EN"
 "http://www.w3.org/Graphics/SVG/1.1/DTD/svg11.dtd">
<!-- Generated by graphviz version 2.40.1 (20161225.0304)
 -->
<!-- Title: G Pages: 1 -->
<svg width="204pt" height="260pt"
 viewBox="0.00 0.00 204.05 260.00" xmlns="http://www.w3.org/2000/svg" xmlns:xlink="http://www.w3.org/1999/xlink">
<g id="graph0" class="graph" transform="scale(1 1) rotate(0) translate(4 256)">
<title>G</title>
<polygon fill="#ffffff" stroke="transparent" points="-4,4 -4,-256 200.0506,-256 200.0506,4 -4,4"/>
<!-- &#45;1000795 -->
<g id="node1" class="node">
<title>&#45;1000795</title>
<ellipse fill="none" stroke="#000000" cx="48.0506" cy="-234" rx="48.1013" ry="18"/>
<text text-anchor="middle" x="48.0506" y="-229.8" font-family="Times,serif" font-size="14.00" fill="#000000">&#45;1000795</text>
</g>
<!-- &#45;500622 -->
<g id="node2" class="node">
<title>&#45;500622</title>
<ellipse fill="none" stroke="#000000" cx="48.0506" cy="-162" rx="43.4454" ry="18"/>
<text text-anchor="middle" x="48.0506" y="-157.8" font-family="Times,serif" font-size="14.00" fill="#000000">&#45;500622</text>
</g>
<!-- &#45;1000795&#45;&gt;&#45;500622 -->
<g id="edge1" class="edge">
<title>&#45;1000795&#45;&gt;&#45;500622</title>
<path fill="none" stroke="#000000" d="M48.0506,-215.8314C48.0506,-208.131 48.0506,-198.9743 48.0506,-190.4166"/>
<polygon fill="#000000" stroke="#000000" points="51.5507,-190.4132 48.0506,-180.4133 44.5507,-190.4133 51.5507,-190.4132"/>
</g>
<!-- 0 -->
<g id="node3" class="node">
<title>0</title>
<ellipse fill="none" stroke="#000000" cx="48.0506" cy="-90" rx="27" ry="18"/>
<text text-anchor="middle" x="48.0506" y="-85.8" font-family="Times,serif" font-size="14.00" fill="#000000">0</text>
</g>
<!-- &#45;500622&#45;&gt;0 -->
<g id="edge2" class="edge">
<title>&#45;500622&#45;&gt;0</title>
<path fill="none" stroke="#000000" d="M48.0506,-143.8314C48.0506,-136.131 48.0506,-126.9743 48.0506,-118.4166"/>
<polygon fill="#000000" stroke="#000000" points="51.5507,-118.4132 48.0506,-108.4133 44.5507,-118.4133 51.5507,-118.4132"/>
</g>
<!-- 7 -->
<g id="node4" class="node">
<title>7</title>
<ellipse fill="none" stroke="#000000" cx="48.0506" cy="-18" rx="27" ry="18"/>
<text text-anchor="middle" x="48.0506" y="-13.8" font-family="Times,serif" font-size="14.00" fill="#000000">7</text>
</g>
<!-- 0&#45;&gt;7 -->
<g id="edge3" class="edge">
<title>0&#45;&gt;7</title>
<path fill="none" stroke="#000000" d="M48.0506,-71.8314C48.0506,-64.131 48.0506,-54.9743 48.0506,-46.4166"/>
<polygon fill="#000000" stroke="#000000" points="51.5507,-46.4132 48.0506,-36.4133 44.5507,-46.4133 51.5507,-46.4132"/>
</g>
<!-- B -->
<g id="node5" class="node">
<title>B</title>
<polygon fill="none" stroke="#000000" points="150.0506,-108 114.0506,-108 114.0506,-72 150.0506,-72 150.0506,-108"/>
<text text-anchor="middle" x="132.0506" y="-85.8" font-family="Times,serif" font-size="14.00" fill="#000000">B</text>
</g>
<!-- C -->
<g id="node6" class="node">
<title>C</title>
<polygon fill="none" stroke="#000000" points="196.0506,-36 160.0506,-36 160.0506,0 196.0506,0 196.0506,-36"/>
<text text-anchor="middle" x="178.0506" y="-13.8" font-family="Times,serif" font-size="14.00" fill="#000000">C</text>
</g>
<!-- b -->
<g id="node7" class="node">
<title>b</title>
<ellipse fill="#3542b2" stroke="#3542b2" cx="132.0506" cy="-234" rx="18" ry="18"/>
<text text-anchor="middle" x="132.0506" y="-229.8" font-family="Times,serif" font-size="14.00" fill="#000000">b</text>
</g>
<!-- b&#45;&gt;B -->
<g id="edge4" class="edge">
<title>b&#45;&gt;B</title>
<path fill="none" stroke="#000000" d="M132.0506,-215.7623C132.0506,-191.201 132.0506,-147.2474 132.0506,-118.3541"/>
<polygon fill="#000000" stroke="#000000" points="135.5507,-118.0896 132.0506,-108.0896 128.5507,-118.0897 135.5507,-118.0896"/>
</g>
<!-- c -->
<g id="node8" class="node">
<title>c</title>
<ellipse fill="#3542b2" stroke="#3542b2" cx="178.0506" cy="-162" rx="18" ry="18"/>
<text text-anchor="middle" x="178.0506" y="-157.8" font-family="Times,serif" font-size="14.00" fill="#000000">c</text>
</g>
<!-- c&#45;&gt;C -->
<g id="edge5" class="edge">
<title>c&#45;&gt;C</title>
<path fill="none" stroke="#000000" d="M178.0506,-143.7623C178.0506,-119.201 178.0506,-75.2474 178.0506,-46.3541"/>
<polygon fill="#000000" stroke="#000000" points="181.5507,-46.0896 178.0506,-36.0896 174.5507,-46.0897 181.5507,-46.0896"/>
</g>
</g>
</svg>
