<?xml version="1.0" encoding="UTF-8" standalone="no"?>
<!DOCTYPE svg PUBLIC "-//W3C//DTD SVG 1.1//EN"
 "http://www.w3.org/Graphics/SVG/1.1/DTD/svg11.dtd">
<!-- Generated by graphviz version 2.40.1 (20161225.0304)
 -->
<!-- Title: G Pages: 1 -->
<svg width="98pt" height="188pt"
 viewBox="0.00 0.00 98.00 188.00" xmlns="http://www.w3.org/2000/svg" xmlns:xlink="http://www.w3.org/1999/xlink">
<g id="graph0" class="graph" transform="scale(1 1) rotate(0) translate(4 184)">
<title>G</title>
<polygon fill="#ffffff" stroke="transparent" points="-4,4 -4,-184 94,-184 94,4 -4,4"/>
<!-- A -->
<g id="node1" class="node">
<title>A</title>
<polygon fill="none" stroke="#000000" points="63,-180 27,-180 27,-144 63,-144 63,-180"/>
<text text-anchor="middle" x="45" y="-157.8" font-family="Times,serif" font-size="14.00" fill="#000000">A</text>
</g>
<!-- b -->
<g id="node4" class="node">
<title>b</title>
<ellipse fill="#3542b2" stroke="#3542b2" cx="18" cy="-90" rx="18" ry="18"/>
<text text-anchor="middle" x="18" y="-85.8" font-family="Times,serif" font-size="14.00" fill="#000000">b</text>
</g>
<!-- A&#45;&gt;b -->
<g id="edge1" class="edge">
<title>A&#45;&gt;b</title>
<path fill="none" stroke="#000000" d="M38.1868,-143.8314C35.0662,-135.51 31.308,-125.4881 27.8846,-116.3591"/>
<polygon fill="#000000" stroke="#000000" points="31.1358,-115.0606 24.3474,-106.9263 24.5815,-117.5185 31.1358,-115.0606"/>
</g>
<!-- c -->
<g id="node5" class="node">
<title>c</title>
<ellipse fill="#3542b2" stroke="#3542b2" cx="72" cy="-90" rx="18" ry="18"/>
<text text-anchor="middle" x="72" y="-85.8" font-family="Times,serif" font-size="14.00" fill="#000000">c</text>
</g>
<!-- A&#45;&gt;c -->
<g id="edge2" class="edge">
<title>A&#45;&gt;c</title>
<path fill="none" stroke="#000000" d="M51.8132,-143.8314C54.9338,-135.51 58.692,-125.4881 62.1154,-116.3591"/>
<polygon fill="#000000" stroke="#000000" points="65.4185,-117.5185 65.6526,-106.9263 58.8642,-115.0606 65.4185,-117.5185"/>
</g>
<!-- B -->
<g id="node2" class="node">
<title>B</title>
<polygon fill="none" stroke="#000000" points="36,-36 0,-36 0,0 36,0 36,-36"/>
<text text-anchor="middle" x="18" y="-13.8" font-family="Times,serif" font-size="14.00" fill="#000000">B</text>
</g>
<!-- C -->
<g id="node3" class="node">
<title>C</title>
<polygon fill="none" stroke="#000000" points="90,-36 54,-36 54,0 90,0 90,-36"/>
<text text-anchor="middle" x="72" y="-13.8" font-family="Times,serif" font-size="14.00" fill="#000000">C</text>
</g>
<!-- b&#45;&gt;B -->
<g id="edge3" class="edge">
<title>b&#45;&gt;B</title>
<path fill="none" stroke="#000000" d="M18,-71.8314C18,-64.131 18,-54.9743 18,-46.4166"/>
<polygon fill="#000000" stroke="#000000" points="21.5001,-46.4132 18,-36.4133 14.5001,-46.4133 21.5001,-46.4132"/>
</g>
<!-- c&#45;&gt;C -->
<g id="edge4" class="edge">
<title>c&#45;&gt;C</title>
<path fill="none" stroke="#000000" d="M72,-71.8314C72,-64.131 72,-54.9743 72,-46.4166"/>
<polygon fill="#000000" stroke="#000000" points="75.5001,-46.4132 72,-36.4133 68.5001,-46.4133 75.5001,-46.4132"/>
</g>
</g>
</svg>
